<?xml version="1.0" encoding="UTF-8" standalone="no"?>
<!-- Created with Inkscape (http://www.inkscape.org/) -->
<svg xmlns:inkscape="http://www.inkscape.org/namespaces/inkscape" xmlns:rdf="http://www.w3.org/1999/02/22-rdf-syntax-ns#" xmlns="http://www.w3.org/2000/svg" xmlns:xlink="http://www.w3.org/1999/xlink" xmlns:ns1="http://sozi.baierouge.fr" xmlns:cc="http://creativecommons.org/ns#" xmlns:sodipodi="http://sodipodi.sourceforge.net/DTD/sodipodi-0.dtd" xmlns:dc="http://purl.org/dc/elements/1.1/" id="svg2" xml:space="preserve" viewBox="0 0 53.522 133.93" version="1.1" inkscape:version="0.91 r13725">
  <defs id="defs6">
    <linearGradient id="linearGradient24" y2="-51.31" gradientUnits="userSpaceOnUse" x2="15.824" gradientTransform="matrix(.000049844 -.8 -.8 .0008 -.0024962 107.15)" y1="-51.31" x1="-.2261">
      <stop id="stop26" style="stop-color:#ffffff" offset="0"/>
      <stop id="stop28" style="stop-color:#d2dde3" offset="1"/>
    </linearGradient>
    <linearGradient id="linearGradient42" y2="-49.471" gradientUnits="userSpaceOnUse" x2="22.213" gradientTransform="matrix(.00012451 -.8 -.8 .0008 -.0021114 107.15)" y1="-49.471" x1="15.788">
      <stop id="stop44" style="stop-color:#ffffff" offset="0"/>
      <stop id="stop46" style="stop-color:#d2dde3" offset="1"/>
    </linearGradient>
    <linearGradient id="linearGradient62" y2="-31.725" gradientUnits="userSpaceOnUse" x2="124.16" gradientTransform="matrix(.0000065373 -.8 -.8 .0008 -.0022377 107.15)" y1="-31.725" x1="1.7832">
      <stop id="stop64" style="stop-color:#ffffff" offset="0"/>
      <stop id="stop66" style="stop-color:#d2dde3" offset="1"/>
    </linearGradient>
    <linearGradient id="linearGradient80" y2="-50.819" gradientUnits="userSpaceOnUse" x2="24.512" gradientTransform="matrix(.00021477 -.8 -.8 .0008 -.0026242 107.15)" y1="-50.819" x1="20.787">
      <stop id="stop82" style="stop-color:#ffffff" offset="0"/>
      <stop id="stop84" style="stop-color:#d2dde3" offset="1"/>
    </linearGradient>
    <linearGradient id="linearGradient98" y2="-52.577" gradientUnits="userSpaceOnUse" x2="16.547" gradientTransform="matrix(.00047059 -.8 -.8 .0008 -.0026036 107.15)" y1="-52.577" x1="14.847">
      <stop id="stop100" style="stop-color:#ffffff" offset="0"/>
      <stop id="stop102" style="stop-color:#d2dde3" offset="1"/>
    </linearGradient>
    <linearGradient id="linearGradient116" y2="-53.128" gradientUnits="userSpaceOnUse" x2="25.447" gradientTransform="matrix(.00030770 -.8 -.8 .0008 -.0023616 107.15)" y1="-53.128" x1="22.847">
      <stop id="stop118" style="stop-color:#ffffff" offset="0"/>
      <stop id="stop120" style="stop-color:#d2dde3" offset="1"/>
    </linearGradient>
    <linearGradient id="linearGradient134" y2="-50.961" gradientUnits="userSpaceOnUse" x2="30.874" gradientTransform="matrix(.00051613 -.8 -.8 .0008 -.0025925 107.15)" y1="-50.961" x1="29.324">
      <stop id="stop136" style="stop-color:#ffffff" offset="0"/>
      <stop id="stop138" style="stop-color:#d2dde3" offset="1"/>
    </linearGradient>
    <linearGradient id="linearGradient152" y2="-46.35" gradientUnits="userSpaceOnUse" x2="44.866" gradientTransform="matrix(.00015023 -.8 -.8 .0008 -.0022353 107.15)" y1="-46.35" x1="39.541">
      <stop id="stop154" style="stop-color:#ffffff" offset="0"/>
      <stop id="stop156" style="stop-color:#d2dde3" offset="1"/>
    </linearGradient>
    <linearGradient id="linearGradient170" y2="-45.826" gradientUnits="userSpaceOnUse" x2="65.491" gradientTransform="matrix(.000030563 -.8 -.8 .0008 -.0021333 107.15)" y1="-45.826" x1="39.316">
      <stop id="stop172" style="stop-color:#ffffff" offset="0"/>
      <stop id="stop174" style="stop-color:#d2dde3" offset="1"/>
    </linearGradient>
    <linearGradient id="linearGradient188" y2="-39.854" gradientUnits="userSpaceOnUse" x2="75.485" gradientTransform="matrix(.000046921 -.8 -.8 .0008 -.0021532 107.15)" y1="-39.854" x1="58.436">
      <stop id="stop190" style="stop-color:#ffffff" offset="0"/>
      <stop id="stop192" style="stop-color:#d2dde3" offset="1"/>
    </linearGradient>
    <linearGradient id="linearGradient206" y2="-23.791" gradientUnits="userSpaceOnUse" x2="81.926" gradientTransform="matrix(.00014815 -.8 -.8 .0008 -.0028683 107.15)" y1="-23.791" x1="76.526">
      <stop id="stop208" style="stop-color:#ffffff" offset="0"/>
      <stop id="stop210" style="stop-color:#d2dde3" offset="1"/>
    </linearGradient>
    <linearGradient id="linearGradient224" y2="-8.0811" gradientUnits="userSpaceOnUse" x2="86.842" gradientTransform="matrix(.0002 -.8 -.8 .0008 -.0028771 107.15)" y1="-8.0811" x1="82.842">
      <stop id="stop226" style="stop-color:#ffffff" offset="0"/>
      <stop id="stop228" style="stop-color:#d2dde3" offset="1"/>
    </linearGradient>
    <linearGradient id="linearGradient244" y2="-.9648" gradientUnits="userSpaceOnUse" x2="86.974" gradientTransform="matrix(.00034042 -.8 -.8 .0008 -.0022433 107.15)" y1="-.9648" x1="84.624">
      <stop id="stop246" style="stop-color:#ffffff" offset="0"/>
      <stop id="stop248" style="stop-color:#d2dde3" offset="1"/>
    </linearGradient>
    <linearGradient id="linearGradient262" y2="-1.6348" gradientUnits="userSpaceOnUse" x2="88.286" gradientTransform="matrix(.00047761 -.8 -.8 .0008 -.0022729 107.15)" y1="-1.6348" x1="86.611">
      <stop id="stop264" style="stop-color:#ffffff" offset="0"/>
      <stop id="stop266" style="stop-color:#d2dde3" offset="1"/>
    </linearGradient>
    <linearGradient id="linearGradient280" y2="-32.738" gradientUnits="userSpaceOnUse" x2="85.817" gradientTransform="matrix(.00014546 -.8 -.8 .0008 -.0022015 107.15)" y1="-32.738" x1="80.317">
      <stop id="stop282" style="stop-color:#ffffff" offset="0"/>
      <stop id="stop284" style="stop-color:#d2dde3" offset="1"/>
    </linearGradient>
    <linearGradient id="linearGradient298" y2="-31.486" gradientUnits="userSpaceOnUse" x2="80.717" gradientTransform="matrix(.0005 -.8 -.8 .0008 -.0022644 107.15)" y1="-31.486" x1="79.118">
      <stop id="stop300" style="stop-color:#ffffff" offset="0"/>
      <stop id="stop302" style="stop-color:#d2dde3" offset="1"/>
    </linearGradient>
    <linearGradient id="linearGradient316" y2="-45.017" gradientUnits="userSpaceOnUse" x2="87.955" gradientTransform="matrix(.00017022 -.8 -.8 .0008 -.0023696 107.15)" y1="-45.017" x1="83.255">
      <stop id="stop318" style="stop-color:#ffffff" offset="0"/>
      <stop id="stop320" style="stop-color:#d2dde3" offset="1"/>
    </linearGradient>
    <linearGradient id="linearGradient334" y2="-44.933" gradientUnits="userSpaceOnUse" x2="106.02" gradientTransform="matrix(.00015311 -.8 -.8 .0008 -.0021867 107.15)" y1="-44.933" x1="100.79">
      <stop id="stop336" style="stop-color:#ffffff" offset="0"/>
      <stop id="stop338" style="stop-color:#d2dde3" offset="1"/>
    </linearGradient>
    <linearGradient id="linearGradient352" y2="-40.895" gradientUnits="userSpaceOnUse" x2="112.62" gradientTransform="matrix(.00039506 -.8 -.8 .0008 -.0021718 107.15)" y1="-40.895" x1="110.6">
      <stop id="stop354" style="stop-color:#ffffff" offset="0"/>
      <stop id="stop356" style="stop-color:#d2dde3" offset="1"/>
    </linearGradient>
    <linearGradient id="linearGradient370" y2="-43.53" gradientUnits="userSpaceOnUse" x2="116.02" gradientTransform="matrix(.00018935 -.8 -.8 .0008 -.0023522 107.15)" y1="-43.53" x1="111.79">
      <stop id="stop372" style="stop-color:#ffffff" offset="0"/>
      <stop id="stop374" style="stop-color:#d2dde3" offset="1"/>
    </linearGradient>
    <linearGradient id="linearGradient388" y2="-43.614" gradientUnits="userSpaceOnUse" x2="124.32" gradientTransform="matrix(.000073903 -.8 -.8 .0008 -.0021228 107.15)" y1="-43.614" x1="113.49">
      <stop id="stop390" style="stop-color:#ffffff" offset="0"/>
      <stop id="stop392" style="stop-color:#d2dde3" offset="1"/>
    </linearGradient>
    <linearGradient id="linearGradient406" y2="-43.036" gradientUnits="userSpaceOnUse" x2="128.83" gradientTransform="matrix(.00029091 -.8 -.8 .0008 -.0026947 107.15)" y1="-43.036" x1="126.08">
      <stop id="stop408" style="stop-color:#ffffff" offset="0"/>
      <stop id="stop410" style="stop-color:#d2dde3" offset="1"/>
    </linearGradient>
    <linearGradient id="linearGradient424" y2="-43.068" gradientUnits="userSpaceOnUse" x2="133.88" gradientTransform="matrix(.00051613 -.8 -.8 .0008 -.0025925 107.15)" y1="-43.068" x1="132.33">
      <stop id="stop426" style="stop-color:#ffffff" offset="0"/>
      <stop id="stop428" style="stop-color:#d2dde3" offset="1"/>
    </linearGradient>
  </defs>
  <g id="g10" transform="matrix(1.25 0 0 -1.25 0 133.93)">
    <g id="g12">
      <g id="g14">
        <g id="g16">
          <g id="g22">
            <path id="path30" style="fill-rule:evenodd;fill:url(#linearGradient24)" d="m42.117 95.191c-0.133-0.16-0.293-0.293-0.48-0.398-0.055 0-0.094-0.016-0.121-0.039-0.157-0.055-0.332-0.094-0.52-0.122-0.371-0.027-0.68 0-0.918 0.079-0.453 0.132-0.707 0.468-0.762 1-0.023 0.132 0.055 0.906 0.243 2.32 0.05 0.242 0.066 0.574 0.039 1 0 0.453 0.015 0.773 0.039 0.961 0.136 0.851 0.386 1.535 0.761 2.039 0.028 0.027 0.133 0.082 0.321 0.16 0.133 0.082 0.226 0.16 0.281 0.242 0.266 0.321 0.41 0.774 0.438 1.36 0 0.16-0.012 0.652-0.04 1.48 0 0.481 0.051 0.918 0.161 1.32 0.132 0.637 0.347 0.719 0.64 0.239l0.399-1.801c0-0.133 0.054-1.559 0.16-4.277 0.054-1.762 0.015-3.188-0.121-4.282-0.078-0.562-0.254-0.988-0.52-1.281z" inkscape:connector-curvature="0"/>
          </g>
        </g>
      </g>
      <g id="g32">
        <g id="g34">
          <g id="g40">
            <path id="path48" style="fill-rule:evenodd;fill:url(#linearGradient42)" d="m39.996 94.351c0.082 0.055 0.149 0.082 0.203 0.082l0.399-0.601c0.05-1.227 0.078-1.973 0.078-2.239-0.051-1.043-0.278-1.695-0.68-1.961-0.184-0.16-0.371-0.242-0.558-0.242-0.079 0.028-0.161 0.055-0.239 0.082-0.082 0.028-0.148 0.067-0.203 0.121-0.16 0.161-0.293 0.36-0.398 0.598-0.215 0.563-0.149 1.375 0.199 2.441 0.32 0.961 0.719 1.532 1.199 1.719z" inkscape:connector-curvature="0"/>
          </g>
        </g>
      </g>
      <path id="path50" style="fill-rule:evenodd;fill:#ccd9e0" d="m38.719 57.07c0.586 0.773 1.133 1.75 1.64 2.922 0.504 1.148 0.879 2.254 1.118 3.32 0.214 0.961 0.32 2.426 0.32 4.399 0.051 2.132-0.067 3.734-0.359 4.8-0.215 0.641-0.376 1.121-0.481 1.442-0.109 0.344-0.187 0.664-0.242 0.957-0.051 1.387-0.172 2.883-0.36 4.48-0.293 2.028-0.507 3.547-0.64 4.563-0.238 1.758-0.344 3.277-0.317 4.558l0.04 0.879c0.187 0 0.371 0.082 0.558 0.242 0.402 0.266 0.629 0.918 0.68 1.961 0 0.266-0.028 1.012-0.078 2.239l-0.403 0.601c-0.05 0-0.117-0.027-0.199-0.082l0.082 0.36c0.238-0.079 0.547-0.106 0.918-0.079 0.188 0.028 0.359 0.067 0.52 0.122-0.028-0.137 0.015-0.282 0.121-0.442 0.027-1.359 0.066-2.785 0.121-4.281 0.316-8.133 0.465-13.012 0.437-14.641 0-1.199-0.066-3.16-0.199-5.879-0.133-2.535-0.199-4.507-0.199-5.918 0-0.617 0.012-1.363 0.039-2.242l-0.238-0.32c0-0.934 0.011-2.348 0.039-4.238 0-1.629-0.133-3.028-0.403-4.2-0.132-0.562-0.41-1.175-0.839-1.839-0.586-0.934-0.934-1.497-1.04-1.684-0.398-0.773-0.531-1.531-0.398-2.277 0.051-0.321 0.293-1.11 0.719-2.364 0.265-0.797 0.371-1.73 0.32-2.797 0-0.613 0.039-1.613 0.117-3 0.082-1.253 0.11-2.242 0.082-2.96v-8.239c0.051-1.043-0.066-1.761-0.359-2.16-0.106-0.133-0.332-0.32-0.68-0.562-0.269-0.184-0.453-0.411-0.562-0.68-0.051-0.16-0.117-0.504-0.199-1.039-0.051-0.399-0.172-0.719-0.36-0.961-0.133-0.16-0.531-0.481-1.199-0.957-0.481-0.348-0.801-0.762-0.961-1.242-0.293-0.774-0.52-1.547-0.68-2.321l-0.601-0.078c-0.481 0.051-0.84-0.269-1.078-0.961-0.028 1.68 0.066 3.067 0.281 4.16 0.051 0.372 0.265 0.918 0.637 1.641 0.054 0.106 0.093 0.199 0.121 0.281 0.082-0.054 0.16-0.093 0.242-0.121 0.265-0.105 0.719-0.105 1.359 0 0.614 0.078 1.012 0.199 1.199 0.36 0.293 0.265 0.465 0.761 0.52 1.48 0.027 0.188 0.027 0.348 0 0.481l0.719-0.122c0.133 0.723 0.176 1.684 0.121 2.883-0.082 1.332-0.121 2.305-0.121 2.918 0.082 0.961 0.133 1.707 0.16 2.242 0.055 0.985-0.039 1.704-0.281 2.157-0.051 0.109-0.172 0.242-0.36 0.402-0.16 0.133-0.265 0.266-0.32 0.398v0.801c0 0.16 0.016 0.309 0.043 0.442 0.051 0 0.094 0.011 0.117 0.039 0.16 0.105 0.254 0.426 0.281 0.961 0.051 0.613-0.027 1.132-0.238 1.558l-2.203 1h-1.32c-0.45-0.105-0.68-0.426-0.68-0.961 0-0.078 0.016-0.183 0.043-0.316-0.109-0.055-0.203-0.121-0.281-0.203l-0.16 0.121c0.558 1.039 0.691 2.16 0.398 3.359-1.813-0.16-3.199-0.215-4.16-0.16-1.731 0.106-2.863 0.668-3.399 1.68 0.133-0.321 0.254-0.692 0.36-1.117-0.133 0-0.282-0.016-0.438-0.043 0.156 0.187 0.172 0.468 0.039 0.839l-1.8 0.204 0.16-0.321c-0.375-0.242-0.481-0.519-0.321-0.84 0.375-0.054 0.696-0.093 0.961-0.121-0.695-0.214-1.492-0.547-2.402-1-0.32-0.16-0.598-0.32-0.84-0.48-0.133-0.027-0.25-0.039-0.359-0.039-0.266-0.028-0.614-0.121-1.039-0.281-0.508-0.161-0.867-0.254-1.082-0.282-0.746-0.132-1.719-0.117-2.918 0.043-1.543 0.211-2.532 0.317-2.957 0.317-0.508 0.027-0.895 0.043-1.16 0.043-0.508 0.027-0.907 0.011-1.2-0.043-0.535-0.078-1.199-0.317-2-0.719-0.105-0.051-0.215-0.117-0.32-0.199l-0.32 0.199c0.16 0.055 0.332 0.109 0.519 0.16 0.961 0.32 2.36 0.817 4.199 1.481 0.11 0.027 0.215 0.066 0.321 0.121 0.265 0.105 0.535 0.238 0.801 0.398 0.214-0.348 0.734-0.547 1.558-0.598 0.801-0.054 1.895 0 3.281 0.157 1.067 0 1.746 0.027 2.039 0.082 0.719 0.16 1.266 0.531 1.641 1.121 0.215 0.293 0.492 0.758 0.84 1.398l-0.16 0.36 1.801 1.839c0.082 0.243 0.093 0.563 0.039 0.961-0.079 0.454-0.133 0.801-0.161 1.039l0.442 0.403c0.215-0.481 0.586-0.895 1.121-1.242 0.773-0.504 1.68-0.758 2.719-0.758 0.293 0 0.812-0.028 1.558-0.082 0.668-0.051 1.16 0 1.481 0.16 0.187 0.082 0.386 0.187 0.601 0.32 0.348 0.078 0.586 0.188 0.719 0.321 0.027 0.023 0.133 0.183 0.32 0.48 0.692 0.641 1.442 1.492 2.239 2.559 0.617 0.8 1 1.332 1.16 1.601 0.082 0.133 0.148 0.25 0.199 0.36 0.137 0.183 0.215 0.398 0.242 0.64v0.078c0.055 0.266 0.082 0.52 0.082 0.762l0.039 0.68c0.078 0.531 0.239 1.254 0.481 2.16v-0.004zm1.277 30.922c0.348-0.641 0.695-0.68 1.043-0.121 0.32 0.535 0.438 1.054 0.359 1.562l-0.8 1c-0.055-0.215-0.227-0.613-0.52-1.203-0.215-0.558-0.242-0.973-0.082-1.238zm0.602-4.36c-0.239-0.242-0.293-0.628-0.16-1.16 0.292-0.132 0.546-0.082 0.761 0.16l-0.601 1z" inkscape:connector-curvature="0"/>
      <g id="g52">
        <g id="g54">
          <g id="g60">
            <path id="path68" style="fill-rule:evenodd;fill:url(#linearGradient62)" d="m39.438 89.39-0.04-0.879c-0.027-1.281 0.079-2.8 0.321-4.558 0.133-1.016 0.343-2.535 0.64-4.563 0.184-1.597 0.305-3.093 0.36-4.48-0.055 0.187-0.094 0.363-0.121 0.523l-2.399-0.203c-0.027 0-0.054-0.012-0.082-0.039l-0.441 0.082c0.32 2.024 0.519 3.414 0.601 4.16 0.399 3.199 0.508 6 0.321 8.399l0.398 1.761c0.055-0.054 0.121-0.093 0.199-0.121 0.082-0.027 0.164-0.054 0.243-0.082zm-1.2-34.48v1.523c0.133 0.184 0.266 0.371 0.399 0.559 0.027 0.027 0.054 0.055 0.082 0.078-0.242-0.906-0.403-1.625-0.481-2.16zm-12.922-6.278c-0.05 0.559-0.027 0.973 0.082 1.239 0.051 0.082 0.118 0.16 0.2 0.242-0.106-0.27-0.082-0.586 0.078-0.961 0.027-0.027 0.054-0.066 0.082-0.121l-0.442-0.399c0.028-0.242 0.082-0.585 0.161-1.039 0.054-0.402 0.039-0.722-0.039-0.961 0.078 0.293 0.05 0.84-0.083 1.641-0.023 0.133-0.039 0.254-0.039 0.359zm3.442 4.918c0.16 0.454 0.441 0.934 0.84 1.442-0.133-0.399-0.282-0.707-0.442-0.922-0.078-0.133-0.211-0.305-0.398-0.52zm9.121-0.796c0.105 0.238 0.183 0.476 0.238 0.718v-0.082c-0.027-0.238-0.105-0.453-0.238-0.636zm-3.602-4.524c-0.187-0.293-0.293-0.453-0.32-0.476-0.133-0.137-0.371-0.243-0.719-0.321 0.321 0.211 0.668 0.477 1.039 0.797zm-24.238-9.519c0.426 0.054 0.879 0.093 1.359 0.121 1.813 0.133 2.907 0.199 3.278 0.199-1.864-0.133-3.41-0.238-4.637-0.32zm3.598 3.16c0.242 0.105 0.496 0.254 0.761 0.441l0.04-0.039c-0.266-0.16-0.536-0.297-0.801-0.402zm19.679-2.758 0.082-0.043 0.161-0.117c0.078 0.078 0.171 0.144 0.277 0.199 0.027-0.16 0.082-0.359 0.16-0.602-0.133 0.137-0.359 0.321-0.68 0.563zm4.563-14.359c-0.055 0.476-0.215 0.773-0.481 0.878l-1 0.801c-0.16-0.215-0.535-0.48-1.121-0.801-0.05-0.054-0.105-0.093-0.16-0.121-0.027 0.055-0.039 0.11-0.039 0.161-0.055 1.093-0.082 1.679-0.082 1.761 0.027 1.254-0.105 3.559-0.398 6.918 0 0.321-0.133 1.242-0.399 2.762-0.027 0.367-0.043 0.66-0.043 0.879 0.004-0.055 0.016-0.11 0.043-0.16 0.184-0.559 0.559-0.895 1.117-1 0.188-0.028 0.735-0.028 1.641 0 0.426 0 0.719 0.011 0.879 0.039-0.024-0.133-0.039-0.278-0.039-0.438v-0.801c0.055-0.132 0.16-0.265 0.32-0.402 0.188-0.156 0.309-0.293 0.36-0.398 0.242-0.453 0.332-1.172 0.281-2.16-0.028-0.532-0.082-1.282-0.16-2.239 0-0.613 0.039-1.59 0.121-2.922 0.051-1.199 0.011-2.16-0.121-2.879l-0.719 0.122z" inkscape:connector-curvature="0"/>
          </g>
        </g>
      </g>
      <g id="g70">
        <g id="g72">
          <g id="g78">
            <path id="path86" style="fill-rule:evenodd;fill:url(#linearGradient80)" d="m39.996 87.992c-0.16 0.265-0.133 0.68 0.082 1.238 0.293 0.59 0.465 0.988 0.52 1.203l0.8-1c0.079-0.508-0.039-1.027-0.359-1.562-0.348-0.559-0.695-0.52-1.043 0.121z" inkscape:connector-curvature="0"/>
          </g>
        </g>
      </g>
      <g id="g88">
        <g id="g90">
          <g id="g96">
            <path id="path104" style="fill-rule:evenodd;fill:url(#linearGradient98)" d="m41.637 94.312c-0.106 0.16-0.145 0.305-0.117 0.442 0.023 0.023 0.066 0.039 0.117 0.039 0.187 0.105 0.347 0.238 0.48 0.398l0.481-0.16c0.109-1.145-0.121-1.481-0.68-1-0.106 0.105-0.199 0.199-0.281 0.281z" inkscape:connector-curvature="0"/>
          </g>
        </g>
      </g>
      <g id="g106">
        <g id="g108">
          <g id="g114">
            <path id="path122" style="fill-rule:evenodd;fill:url(#linearGradient116)" d="m42.199 88.832 0.598-1c0.027-0.375 0.027-0.625 0-0.762-0.051-0.266-0.238-0.344-0.559-0.238-0.027 0.215-0.039 0.879-0.039 2z" inkscape:connector-curvature="0"/>
          </g>
        </g>
      </g>
      <g id="g124">
        <g id="g126">
          <g id="g132">
            <path id="path140" style="fill-rule:evenodd;fill:url(#linearGradient134)" d="m40.598 83.632 0.601-1c-0.215-0.242-0.469-0.292-0.761-0.16-0.133 0.532-0.079 0.918 0.16 1.16z" inkscape:connector-curvature="0"/>
          </g>
        </g>
      </g>
      <g id="g142">
        <g id="g144">
          <g id="g150">
            <path id="path158" style="fill-rule:evenodd;fill:url(#linearGradient152)" d="m34.836 72.113c-0.024 0.051-0.039 0.094-0.039 0.117-0.078 0.348-0.078 0.668 0 0.961 0.133 0.481 0.402 0.906 0.801 1.281 0.132 0.133 0.535 0.453 1.199 0.961l0.879-0.16 0.441-0.082 1.082-0.16c0.211-0.641 0.278-1.293 0.199-1.961-0.105-0.824-0.425-1.359-0.96-1.598-0.239-0.132-0.708-0.199-1.399-0.199h-0.242c-0.852 0-1.387 0.067-1.598 0.199-0.187 0.133-0.308 0.348-0.363 0.641z" inkscape:connector-curvature="0"/>
          </g>
        </g>
      </g>
      <g id="g160">
        <g id="g162">
          <g id="g168">
            <path id="path176" style="fill-rule:evenodd;fill:url(#linearGradient170)" d="m40.719 74.91c0.051-0.293 0.133-0.613 0.238-0.957 0.105-0.321 0.266-0.801 0.481-1.442 0.292-1.066 0.414-2.668 0.359-4.8 0-1.973-0.106-3.438-0.32-4.399-0.239-1.066-0.614-2.176-1.118-3.32-0.507-1.172-1.054-2.149-1.64-2.922-0.028-0.023-0.055-0.051-0.082-0.078-0.133-0.188-0.266-0.371-0.399-0.559-0.027 0.797-0.426 1.52-1.199 2.16-0.801 0.614-1.613 0.891-2.441 0.84l-1 0.598c-0.055 0.293-0.321 0.266-0.801-0.078-0.188-0.133-0.414-0.321-0.68-0.563-0.293 0.43-0.48 0.922-0.558 1.481-0.11 0.75-0.028 1.453 0.238 2.121 0.109 0.265 0.293 0.519 0.562 0.762 0.317 0.316 0.516 0.543 0.598 0.679 0.215 0.321 0.387 0.84 0.52 1.559 0.082 0.293 0.148 0.668 0.199 1.121 0.082 0.559 0.133 0.934 0.16 1.117 0.055 0.242 0.199 0.629 0.441 1.16 0.188 0.481 0.305 0.883 0.36 1.203 0.027 0.532 0.054 0.918 0.082 1.161 0.023 0.132 0.066 0.25 0.117 0.359 0.055-0.293 0.176-0.508 0.359-0.641 0.215-0.132 0.75-0.199 1.602-0.199h0.238c0.695 0 1.16 0.067 1.403 0.199 0.531 0.239 0.851 0.774 0.96 1.598 0.079 0.668 0.012 1.32-0.203 1.961l-1.078 0.16c0.028 0.027 0.051 0.039 0.078 0.039l2.403 0.203c0.027-0.16 0.066-0.336 0.121-0.523z" inkscape:connector-curvature="0"/>
          </g>
        </g>
      </g>
      <g id="g178">
        <g id="g180">
          <g id="g186">
            <path id="path194" style="fill-rule:evenodd;fill:url(#linearGradient188)" d="m38.238 56.433v-1.523l-0.039-0.68c0-0.238-0.027-0.492-0.082-0.758-0.055-0.242-0.133-0.48-0.238-0.718-0.055-0.11-0.121-0.227-0.203-0.364-0.156-0.265-0.543-0.797-1.156-1.597-0.801-1.067-1.547-1.922-2.243-2.563-0.371-0.316-0.718-0.586-1.039-0.797-0.215-0.133-0.414-0.242-0.601-0.32-0.321-0.16-0.813-0.215-1.481-0.16-0.746 0.051-1.265 0.078-1.558 0.078-1.039 0-1.95 0.254-2.719 0.762-0.535 0.347-0.906 0.761-1.121 1.238-0.028 0.055-0.051 0.094-0.082 0.121-0.156 0.375-0.184 0.691-0.078 0.961 0.05 0.266 0.214 0.492 0.48 0.68 0.16 0.105 0.414 0.187 0.758 0.238 0.269 0.055 0.48 0.187 0.641 0.402 0.132 0.239 0.293 0.641 0.48 1.199 0.109 0.188 0.309 0.426 0.602 0.719 0.05 0.082 0.117 0.149 0.199 0.203 0.187 0.211 0.32 0.383 0.402 0.52 0.156 0.211 0.305 0.519 0.438 0.918 0.054 0.242 0.121 0.508 0.199 0.801 0.215 0.828 0.43 1.414 0.641 1.761 0.292 0.453 0.839 1.051 1.64 1.797l0.039 0.043c0.27 0.238 0.496 0.426 0.684 0.559 0.476 0.347 0.746 0.375 0.797 0.078l1-0.598c0.828 0.051 1.64-0.226 2.441-0.84 0.773-0.64 1.172-1.363 1.199-2.16z" inkscape:connector-curvature="0"/>
          </g>
        </g>
      </g>
      <g id="g196">
        <g id="g198">
          <g id="g204">
            <path id="path212" style="fill-rule:evenodd;fill:url(#linearGradient206)" d="m23.637 44.793 0.16-0.36c-0.348-0.64-0.625-1.109-0.84-1.402-0.375-0.586-0.918-0.957-1.641-1.117-0.293-0.055-0.972-0.082-2.039-0.082-1.386-0.16-2.48-0.215-3.281-0.16-0.824 0.054-1.344 0.253-1.558 0.601l-0.04 0.039c-0.16 0.293-0.148 0.664 0.04 1.117 0.214 0.536 0.679 1.055 1.398 1.563 0.668 0.508 1.269 0.785 1.801 0.84 0.695 0.105 1.668 0.054 2.922-0.16 1.304-0.215 2.25-0.293 2.839-0.243l0.239-0.636z" inkscape:connector-curvature="0"/>
          </g>
        </g>
      </g>
      <g id="g214">
        <g id="g216">
          <g id="g222">
            <path id="path230" style="fill-rule:evenodd;fill:url(#linearGradient224)" d="m8.598 40.113 0.32-0.203 0.48-0.278c0-0.402-0.015-0.722-0.039-0.96-0.027-0.106-0.054-0.2-0.082-0.282-0.105-0.293-0.425-0.48-0.961-0.558-0.984-0.16-2.144-0.16-3.48 0-0.477 0.054-0.77 0.105-0.879 0.16-0.16 0.078-0.281 0.293-0.359 0.64-0.106 0.614 0.011 1.118 0.359 1.52 0.348 0.398 0.84 0.625 1.481 0.68 0.292 0.054 0.839-0.012 1.64-0.2 0.824-0.16 1.266-0.292 1.32-0.402l0.2-0.117z" inkscape:connector-curvature="0"/>
          </g>
        </g>
      </g>
      <path id="path232" style="fill-rule:evenodd;fill:#bac5cc" d="m8.918 39.91c0.105 0.082 0.215 0.148 0.32 0.203 0.801 0.398 1.465 0.641 2 0.719 0.293 0.054 0.692 0.066 1.2 0.039 0.265 0 0.652-0.012 1.16-0.039 0.425 0 1.414-0.106 2.961-0.321 1.199-0.16 2.171-0.171 2.918-0.039 0.214 0.028 0.574 0.118 1.082 0.282 0.425 0.156 0.773 0.25 1.039 0.277 0.105 0 0.226 0.016 0.359 0.043-0.934-0.586-1.281-1.121-1.039-1.602-0.613-0.054-1.148-0.105-1.602-0.16-1.839-0.187-3.386-0.281-4.64-0.281-0.371 0-1.465-0.066-3.278-0.199-0.48-0.028-0.933-0.067-1.359-0.121h-0.402c-0.106 0-0.199-0.012-0.278-0.039 0.024 0.242 0.039 0.558 0.039 0.96l-0.48 0.278zm24.398-0.797c-0.64 0.559-1.226 0.973-1.757 1.238-0.028 0.188-0.067 0.375-0.121 0.559-0.161 0.48-0.442 0.789-0.84 0.922l-3.602 1c-0.133 0.027-0.266 0.027-0.398 0-0.106 0.425-0.227 0.8-0.36 1.121 0.532-1.016 1.668-1.574 3.399-1.684 0.961-0.051 2.347 0 4.16 0.16 0.293-1.199 0.16-2.32-0.399-3.359l-0.082 0.043zm2.602-21.52-0.719-0.082c0.16 0.774 0.383 1.547 0.68 2.321 0.16 0.48 0.48 0.894 0.957 1.238 0.668 0.48 1.07 0.801 1.203 0.961 0.184 0.242 0.305 0.559 0.359 0.961 0.079 0.531 0.145 0.879 0.2 1.039 0.105 0.266 0.293 0.492 0.558 0.68 0.348 0.242 0.574 0.425 0.68 0.562 0.297 0.399 0.414 1.117 0.363 2.156v8.243c0.024 0.718 0 1.707-0.082 2.96-0.078 1.387-0.121 2.387-0.121 3 0.055 1.067-0.051 2-0.32 2.801-0.426 1.254-0.664 2.039-0.719 2.36-0.133 0.746 0 1.507 0.402 2.281 0.106 0.183 0.453 0.746 1.039 1.68 0.426 0.664 0.707 1.277 0.84 1.839 0.266 1.172 0.399 2.575 0.399 4.2-0.024 1.894-0.039 3.304-0.039 4.238l0.242 0.32v-0.039c0-0.398 0.012-0.851 0.039-1.359l0.039-1.242c0-0.239 0.016-0.477 0.043-0.719v-1.801c0-2.023-0.082-3.719-0.242-5.078-0.293-2.535-0.375-6.148-0.242-10.84 0.132-5.07 0.121-8.68-0.039-10.84-0.106-1.496-0.399-3.054-0.879-4.679-0.563-1.868-1.227-3.282-2-4.243-0.293-0.398-0.934-1.105-1.922-2.121l-0.117-0.117c-0.188-0.215-0.375-0.43-0.563-0.641-0.027 0-0.039-0.015-0.039-0.039z" inkscape:connector-curvature="0"/>
      <g id="g234">
        <g id="g236">
          <g id="g242">
            <path id="path250" style="fill-rule:evenodd;fill:url(#linearGradient244)" d="m0.996 39.433 0.602-0.402c0-0.664-0.082-1.078-0.239-1.238-0.187-0.188-0.629-0.227-1.32-0.121-0.109 0.453 0.012 0.789 0.359 1 0.372 0.293 0.575 0.546 0.598 0.761z" inkscape:connector-curvature="0"/>
          </g>
        </g>
      </g>
      <g id="g252">
        <g id="g254">
          <g id="g260">
            <path id="path268" style="fill-rule:evenodd;fill:url(#linearGradient262)" d="m0.797 37.433c0.32 0.16 0.652 0.227 1 0.199l0.402 0.2c-0.027-0.321-0.176-0.641-0.441-0.961-0.32-0.371-0.641-0.438-0.961-0.199-0.399 0.32-0.399 0.574 0 0.761z" inkscape:connector-curvature="0"/>
          </g>
        </g>
      </g>
      <g id="g270">
        <g id="g272">
          <g id="g278">
            <path id="path286" style="fill-rule:evenodd;fill:url(#linearGradient280)" d="m31.559 40.351c-0.028-0.238-0.082-0.465-0.161-0.679-0.293-0.586-0.906-0.934-1.839-1.04-0.614-0.082-1.403-0.109-2.36-0.082-1.066 0.055-1.867 0.082-2.402 0.082-0.746-0.027-1.332-0.027-1.758 0-0.723 0.028-1.269 0.161-1.641 0.399-0.242 0.133-0.402 0.281-0.48 0.441-0.242 0.481 0.105 1.012 1.039 1.598 0.242 0.16 0.52 0.32 0.84 0.48 0.906 0.454 1.707 0.79 2.402 1 0.344 0.11 0.664 0.188 0.957 0.243 0.16 0.027 0.309 0.039 0.442 0.039 0.132 0.027 0.265 0.027 0.398 0l3.602-1c0.398-0.133 0.679-0.442 0.84-0.918 0.054-0.188 0.093-0.375 0.121-0.563z" inkscape:connector-curvature="0"/>
          </g>
        </g>
      </g>
      <g id="g288">
        <g id="g290">
          <g id="g296">
            <path id="path304" style="fill-rule:evenodd;fill:url(#linearGradient298)" d="m26.156 42.793c-0.293-0.055-0.613-0.133-0.957-0.243-0.269 0.028-0.59 0.067-0.961 0.122-0.16 0.32-0.054 0.601 0.321 0.839l-0.161 0.321 1.801-0.2c0.133-0.375 0.117-0.656-0.043-0.839z" inkscape:connector-curvature="0"/>
          </g>
        </g>
      </g>
      <g id="g306">
        <g id="g308">
          <g id="g314">
            <path id="path322" style="fill-rule:evenodd;fill:url(#linearGradient316)" d="m33.996 38.55c-0.078 0.243-0.133 0.442-0.16 0.602-0.024 0.133-0.039 0.238-0.039 0.32 0 0.532 0.226 0.852 0.68 0.957h1.32l2.199-1c0.215-0.425 0.293-0.945 0.242-1.558-0.027-0.531-0.121-0.852-0.281-0.961-0.027-0.024-0.066-0.039-0.121-0.039-0.16-0.028-0.453-0.039-0.879-0.039-0.906-0.028-1.453-0.028-1.641 0-0.558 0.105-0.933 0.441-1.117 1-0.027 0.05-0.039 0.101-0.043 0.16-0.078 0.211-0.133 0.398-0.16 0.558z" inkscape:connector-curvature="0"/>
          </g>
        </g>
      </g>
      <g id="g324">
        <g id="g326">
          <g id="g332">
            <path id="path340" style="fill-rule:evenodd;fill:url(#linearGradient334)" d="m34.559 22.55c-0.293 0.161-0.469 0.426-0.52 0.801-0.055 0.403 0.023 0.828 0.238 1.281 0.161 0.321 0.442 0.614 0.84 0.879 0.055 0.028 0.11 0.067 0.16 0.121 0.586 0.321 0.961 0.586 1.121 0.801l1-0.801c0.266-0.105 0.426-0.402 0.481-0.878 0.027-0.137 0.027-0.293 0-0.481-0.055-0.723-0.227-1.215-0.52-1.48-0.187-0.161-0.586-0.282-1.199-0.364-0.64-0.105-1.094-0.105-1.363 0-0.078 0.028-0.16 0.067-0.238 0.121z" inkscape:connector-curvature="0"/>
          </g>
        </g>
      </g>
      <g id="g342">
        <g id="g344">
          <g id="g350">
            <path id="path358" style="fill-rule:evenodd;fill:url(#linearGradient352)" d="m32.797 18.433 0.601 0.199c0-0.453-0.082-0.867-0.242-1.242-0.238-0.504-0.547-0.492-0.918 0.043-0.16 0.211-0.16 0.426 0 0.641 0.133 0.211 0.321 0.332 0.559 0.359z" inkscape:connector-curvature="0"/>
          </g>
        </g>
      </g>
      <g id="g360">
        <g id="g362">
          <g id="g368">
            <path id="path376" style="fill-rule:evenodd;fill:url(#linearGradient370)" d="m33.516 16.472c0.242 0.692 0.601 1.012 1.082 0.957l0.601 0.082 0.719 0.082 0.281 0.039c0-0.214 0.039-0.679 0.117-1.402 0.055-0.664 0.016-1.117-0.117-1.359-0.137-0.266-0.402-0.426-0.801-0.481h-0.082c-0.371-0.078-0.734-0.078-1.078 0-0.027 0.028-0.054 0.043-0.082 0.043-0.265 0.051-0.453 0.145-0.558 0.278-0.055 0.027-0.082 0.054-0.082 0.082-0.051 0.082-0.094 0.172-0.118 0.281-0.082 0.238-0.066 0.625 0.04 1.16 0.027 0.078 0.054 0.156 0.078 0.238z" inkscape:connector-curvature="0"/>
          </g>
        </g>
      </g>
      <g id="g378">
        <g id="g380">
          <g id="g386">
            <path id="path394" style="fill-rule:evenodd;fill:url(#linearGradient388)" d="m35.398 14.39c0.586-0.133 0.973-0.625 1.161-1.48 0.16-0.797 0.16-1.613 0-2.438-0.188-1.043-0.387-1.718-0.602-2.043-0.398-0.586-1.039-0.769-1.918-0.558-0.562 0.133-0.867 0.652-0.922 1.558 0.055 1.071 0.082 1.801 0.082 2.203 0 1.387 0.051 2.305 0.16 2.758 0.051 0.16 0.106 0.293 0.161 0.403 0-0.028 0.023-0.055 0.078-0.082 0.109-0.133 0.293-0.227 0.562-0.282 0.024 0 0.051-0.011 0.078-0.039 0.348-0.082 0.707-0.082 1.082 0h0.078z" inkscape:connector-curvature="0"/>
          </g>
        </g>
      </g>
      <g id="g396">
        <g id="g398">
          <g id="g404">
            <path id="path412" style="fill-rule:evenodd;fill:url(#linearGradient406)" d="m35.316 4.632c-0.293-0.585-0.773-0.707-1.441-0.359-0.316 0.16-0.465 0.414-0.437 0.758 0.105 0.43 0.16 0.762 0.16 1l1.597 0.199c0.348-0.531 0.387-1.066 0.121-1.598z" inkscape:connector-curvature="0"/>
          </g>
        </g>
      </g>
      <g id="g414">
        <g id="g416">
          <g id="g422">
            <path id="path430" style="fill-rule:evenodd;fill:url(#linearGradient424)" d="m34.277 0.632c0.082 0.344 0.121 0.543 0.121 0.598l0.399-0.598c0.055-0.214 0.055-0.414 0-0.601-0.215-0.051-0.399-0.039-0.559 0.043-0.054 0.156-0.039 0.344 0.039 0.558z" inkscape:connector-curvature="0"/>
          </g>
        </g>
      </g>
    </g>
  </g>
<metadata><rdf:RDF><cc:Work><dc:format>image/svg+xml</dc:format><dc:type rdf:resource="http://purl.org/dc/dcmitype/StillImage"/><cc:license rdf:resource="http://creativecommons.org/licenses/publicdomain/"/><dc:publisher><cc:Agent rdf:about="http://openclipart.org/"><dc:title>Openclipart</dc:title></cc:Agent></dc:publisher></cc:Work><cc:License rdf:about="http://creativecommons.org/licenses/publicdomain/"><cc:permits rdf:resource="http://creativecommons.org/ns#Reproduction"/><cc:permits rdf:resource="http://creativecommons.org/ns#Distribution"/><cc:permits rdf:resource="http://creativecommons.org/ns#DerivativeWorks"/></cc:License></rdf:RDF></metadata></svg>
