<?xml version="1.0" encoding="UTF-8" standalone="no"?>
<!-- Created with Inkscape (http://www.inkscape.org/) -->
<svg xmlns:inkscape="http://www.inkscape.org/namespaces/inkscape" xmlns:rdf="http://www.w3.org/1999/02/22-rdf-syntax-ns#" xmlns="http://www.w3.org/2000/svg" xmlns:xlink="http://www.w3.org/1999/xlink" xmlns:ns1="http://sozi.baierouge.fr" xmlns:cc="http://creativecommons.org/ns#" xmlns:sodipodi="http://sodipodi.sourceforge.net/DTD/sodipodi-0.dtd" xmlns:dc="http://purl.org/dc/elements/1.1/" id="svg2" xml:space="preserve" viewBox="0 0 103.68 34.598" version="1.1" inkscape:version="0.91 r13725">
  <defs id="defs6">
    <linearGradient id="linearGradient24" y2="-51.867" gradientUnits="userSpaceOnUse" x2="35.048" gradientTransform="matrix(.000022535 -.8 -.8 .0008 -.020132 27.674)" y1="-51.867" x1="-.4517">
      <stop id="stop26" style="stop-color:#ffffff" offset="0"/>
      <stop id="stop28" style="stop-color:#c8dae3" offset="1"/>
    </linearGradient>
  </defs>
  <g id="g10" transform="matrix(1.25 0 0 -1.25 0 34.598)">
    <g id="g12">
      <g id="g14">
        <g id="g16">
          <g id="g22">
            <path id="path30" style="fill-rule:evenodd;fill:url(#linearGradient24)" d="m29.859 27.393c0.348-0.105 0.868-0.293 1.563-0.558 0.637-0.215 1.172-0.293 1.598-0.243l7.8-0.359c0.719 0 1.946 0.133 3.68 0.402 1.574 0.266 2.828 0.344 3.758 0.239 0.883-0.106 2.121-0.161 3.722-0.161 1.758-0.027 3.012-0.066 3.758-0.121 0.723-0.05 2.176-0.093 4.364-0.117 1.89 0 3.343-0.082 4.359-0.242 0.453-0.051 0.934-0.211 1.437-0.48 0.293-0.133 0.75-0.36 1.36-0.68 0.64-0.293 1.43-0.559 2.363-0.801 0.531-0.133 1.344-0.305 2.438-0.519 0.613-0.133 2.214-0.36 4.8-0.68 2-0.238 3.563-0.598 4.68-1.078 0.535-0.242 0.867-0.426 1-0.563 0.242-0.238 0.375-0.637 0.402-1.199 0.024-0.586-0.027-0.984-0.16-1.199s-0.441-0.414-0.922-0.602c-0.211-0.078-0.574-0.094-1.078-0.039-0.535 0.027-0.906 0.016-1.121-0.039-0.933-0.293-1.625-0.492-2.082-0.601-2.316-0.184-3.984-0.372-5-0.559-1.785-0.348-2.973-1.465-3.558-3.359-0.161-0.563-0.293-1.454-0.399-2.68-0.187-0.934-0.719-1.453-1.601-1.563-0.774-0.078-1.442 0.243-2 0.961-0.934 1.2-1.426 1.828-1.481 1.883-0.824 0.664-1.812 0.863-2.961 0.598-0.558-0.133-1.598-0.559-3.117-1.281-1.176-0.586-2.176-0.973-3-1.157-0.961-0.187-1.961-0.16-3 0.078-0.801 0.215-1.387 0.321-1.762 0.321-0.691 0.054-1.277-0.082-1.758-0.399-0.214-0.16-0.453-0.496-0.718-1-0.243-0.535-0.481-0.867-0.723-1-0.184-0.136-0.879-0.402-2.078-0.801-0.883-0.292-1.52-0.734-1.922-1.32-0.133-0.215-0.277-0.64-0.438-1.281-0.16-0.559-0.359-0.945-0.601-1.16-0.293-0.266-0.68-0.399-1.16-0.399h-1.239c-0.667-0.132-1.32-0.386-1.96-0.761-0.723-0.399-1.243-0.868-1.563-1.399-0.105-0.215-0.172-0.558-0.199-1.039 0-0.187-0.293-0.32-0.879-0.402-2.426-0.321-3.867 1.574-4.32 5.679-0.133 1.067-0.375 1.801-0.719 2.204-0.402 0.453-1.121 0.664-2.16 0.636-0.215 0-1.094-0.265-2.641-0.797-0.883-0.324-1.613-0.082-2.199 0.719-0.082 0.106-0.242 0.414-0.481 0.918-0.187 0.426-0.402 0.707-0.64 0.84-0.215 0.133-0.547 0.16-1 0.082-0.508-0.055-0.856-0.043-1.039 0.039-0.321 0.133-0.657 0.414-1 0.84-0.297 0.293-0.684 0.469-1.16 0.519-0.375 0.055-0.68 0.04-0.922-0.039-0.188-0.027-0.465-0.148-0.84-0.359-0.16-0.109-0.442-0.402-0.84-0.883-0.371-0.426-0.707-0.691-1-0.797-0.32-0.109-0.773-0.093-1.359 0.039-0.856 0.188-1.321 0.282-1.403 0.282-1.332-0.028-2.293 0.011-2.879 0.117-0.984 0.16-1.707 0.707-2.16 1.64-0.719 1.547-1.172 3.067-1.359 4.559-0.078 0-0.813-0.012-2.199-0.039-1.016-0.027-1.668 0.148-1.961 0.52-0.239 0.296-0.239 0.839 0 1.64 0.082 0.266 0.293 0.789 0.64 1.563 0.535 1.039 1.399 1.812 2.602 2.316 0.558 0.242 1.746 0.59 3.558 1.043 1.868 0.48 3.918 1.371 6.161 2.68 1.121 0.664 2.64 1 4.558 1 1.067 0 2.656-0.016 4.762-0.039 0.48 0.023 1.172 0.144 2.078 0.359 0.906 0.184 1.586 0.305 2.039 0.359 1.176 0.028 2.27-0.066 3.281-0.281z" inkscape:connector-curvature="0"/>
          </g>
        </g>
      </g>
      <path id="path32" style="fill-rule:evenodd;fill:#ccd8e0" d="m0.379 16.674 5.723 0.2c0.265-1.332 0.89-2.454 1.878-3.36 1.067-0.961 2.266-1.375 3.598-1.242 2.961 0.375 5.227 0.602 6.801 0.684 1.359 0.05 2.281 0.039 2.762-0.043l0.757-0.118c0.508-1.574 1.59-2.667 3.243-3.281 1.625-0.586 3.187-0.508 4.679 0.239 0.266-0.266 0.707-1.028 1.321-2.282 0.664-1.383 1.785-2.238 3.359-2.558 1.441-0.293 2.867-0.106 4.281 0.558 1.465 0.641 3.078 1.949 4.84 3.922 1.945 0.613 3.16 2.012 3.641 4.199 0.933-0.613 1.972-0.918 3.117-0.918l2.601 0.079c2.747 0.132 5.04 0.453 6.879 0.96 2.426 0.668 4.426 1.707 6 3.122 1.602 1.414 4.2 2.437 7.801 3.078 4.719 0.8 7.563 1.386 8.52 1.761 0.453-0.214 0.707-0.695 0.761-1.441 0.024-0.586-0.027-0.984-0.16-1.199s-0.441-0.414-0.922-0.602c-0.211-0.078-0.574-0.094-1.078-0.039-0.535 0.027-0.906 0.012-1.121-0.039-0.933-0.293-1.625-0.496-2.082-0.601-2.316-0.188-3.984-0.372-5-0.559-1.785-0.348-2.973-1.469-3.558-3.359-0.161-0.563-0.293-1.454-0.399-2.684-0.187-0.93-0.719-1.453-1.601-1.559-0.774-0.078-1.442 0.243-2 0.961-0.934 1.2-1.426 1.828-1.481 1.883-0.824 0.664-1.812 0.863-2.961 0.598-0.558-0.133-1.598-0.559-3.117-1.281-1.176-0.586-2.176-0.973-3-1.157-0.961-0.187-1.961-0.16-3 0.078-0.801 0.215-1.387 0.321-1.762 0.321-0.691 0.054-1.277-0.082-1.758-0.399-0.214-0.16-0.453-0.496-0.718-1-0.243-0.535-0.481-0.867-0.723-1-0.184-0.136-0.879-0.402-2.078-0.801-0.883-0.292-1.52-0.734-1.922-1.32-0.133-0.215-0.277-0.64-0.438-1.281-0.16-0.559-0.359-0.945-0.601-1.16-0.293-0.266-0.68-0.399-1.16-0.399h-1.239c-0.667-0.132-1.32-0.386-1.96-0.761-0.723-0.399-1.243-0.868-1.563-1.399-0.105-0.215-0.172-0.558-0.199-1.039 0-0.187-0.293-0.32-0.879-0.402-2.426-0.321-3.867 1.574-4.32 5.679-0.133 1.067-0.375 1.801-0.719 2.204-0.402 0.453-1.121 0.664-2.16 0.636-0.215 0-1.094-0.265-2.641-0.797-0.883-0.324-1.613-0.082-2.199 0.719-0.082 0.106-0.242 0.414-0.481 0.918-0.187 0.426-0.402 0.707-0.64 0.84-0.215 0.133-0.547 0.16-1 0.082-0.508-0.055-0.856-0.043-1.039 0.039-0.321 0.133-0.657 0.414-1 0.84-0.297 0.293-0.684 0.469-1.16 0.519-0.375 0.055-0.68 0.04-0.922-0.039-0.188-0.027-0.465-0.148-0.84-0.359-0.16-0.109-0.442-0.402-0.84-0.883-0.371-0.426-0.707-0.691-1-0.797-0.32-0.109-0.773-0.093-1.359 0.039-0.856 0.188-1.321 0.282-1.403 0.282-1.332-0.028-2.293 0.011-2.879 0.117-0.984 0.16-1.707 0.707-2.16 1.64-0.719 1.547-1.172 3.067-1.359 4.559-0.028 0-0.746-0.012-2.16-0.039-0.961-0.027-1.602 0.133-1.918 0.48l0.117-0.039z" inkscape:connector-curvature="0"/>
    </g>
  </g>
<metadata><rdf:RDF><cc:Work><dc:format>image/svg+xml</dc:format><dc:type rdf:resource="http://purl.org/dc/dcmitype/StillImage"/><cc:license rdf:resource="http://creativecommons.org/licenses/publicdomain/"/><dc:publisher><cc:Agent rdf:about="http://openclipart.org/"><dc:title>Openclipart</dc:title></cc:Agent></dc:publisher></cc:Work><cc:License rdf:about="http://creativecommons.org/licenses/publicdomain/"><cc:permits rdf:resource="http://creativecommons.org/ns#Reproduction"/><cc:permits rdf:resource="http://creativecommons.org/ns#Distribution"/><cc:permits rdf:resource="http://creativecommons.org/ns#DerivativeWorks"/></cc:License></rdf:RDF></metadata></svg>
