<?xml version="1.0" encoding="UTF-8" standalone="no"?>
<!-- Created with Inkscape (http://www.inkscape.org/) -->
<svg xmlns:inkscape="http://www.inkscape.org/namespaces/inkscape" xmlns:rdf="http://www.w3.org/1999/02/22-rdf-syntax-ns#" xmlns="http://www.w3.org/2000/svg" xmlns:xlink="http://www.w3.org/1999/xlink" xmlns:ns1="http://sozi.baierouge.fr" xmlns:cc="http://creativecommons.org/ns#" xmlns:sodipodi="http://sodipodi.sourceforge.net/DTD/sodipodi-0.dtd" xmlns:dc="http://purl.org/dc/elements/1.1/" id="svg2" xml:space="preserve" viewBox="0 0 38.586 23.364" version="1.1" inkscape:version="0.91 r13725">
  <defs id="defs6">
    <linearGradient id="linearGradient24" y2="-19.307" gradientUnits="userSpaceOnUse" x2="23.994" gradientTransform="matrix(.000034151 -.8 -.8 .0008 -.0028680 18.686)" y1="-19.307" x1=".56880">
      <stop id="stop26" style="stop-color:#ffffff" offset="0"/>
      <stop id="stop28" style="stop-color:#c8dae3" offset="1"/>
    </linearGradient>
  </defs>
  <g id="g10" transform="matrix(1.25 0 0 -1.25 0 23.364)">
    <g id="g12">
      <g id="g14">
        <g id="g16">
          <g id="g22">
            <path id="path30" style="fill-rule:evenodd;fill:url(#linearGradient24)" d="m5.195 11.527c-0.398 0.426-0.957 0.438-1.679 0.039-0.078-0.05-0.465-0.625-1.161-1.718-0.503-0.801-1.105-1.016-1.796-0.641-0.481 0.238-0.641 0.773-0.481 1.598 0.266 0.91 0.438 1.507 0.52 1.8 0.48 1.629 1.027 2.68 1.64 3.161 0.321 0.265 0.813 0.535 1.481 0.8 0.746 0.348 1.277 0.629 1.597 0.84 0.989 0.614 1.614 0.961 1.879 1.039 0.453 0.188 1.188 0.27 2.203 0.242h6.278l2.359-0.441c2.082 0 3.977-0.172 5.684-0.519l2.957-0.282c1.254-0.105 2.187-0.386 2.801-0.84 1.308-0.984 1.695-3.093 1.16-6.32-0.535-3.25-1.719-4.504-3.559-3.758-0.187 0.692-0.32 1.211-0.402 1.559-0.156 0.586-0.227 1.105-0.199 1.562-1.36 0.239-2.227 0.239-2.602 0-0.211-0.136-0.383-0.441-0.52-0.921-0.132-0.481-0.293-0.786-0.48-0.918-0.316-0.243-0.879-0.387-1.68-0.442-0.797-0.027-1.386-0.176-1.757-0.441-0.508-0.371-0.801-0.879-0.883-1.52-0.024-0.105-0.039-0.734-0.039-1.879-0.024-0.8-0.2-1.933-0.52-3.402-0.773-0.371-1.574 0.082-2.398 1.363-0.641 0.985-1.055 1.946-1.243 2.879l-0.117 0.281c-0.082 0.481-0.242 1.868-0.48 4.161-0.133 1.492-0.266 2.386-0.403 2.679-0.371 0.852-1.171 1.067-2.398 0.641-0.828-0.297-1.281-0.906-1.359-1.84-0.082-1.203-0.293-2-0.641-2.402-0.613 0.293-1.121 0.613-1.519 0.961-0.376 0.293-0.813 0.746-1.321 1.359-0.375 0.664-0.679 1.105-0.922 1.32z" inkscape:connector-curvature="0"/>
          </g>
        </g>
      </g>
      <path id="path32" style="fill-rule:evenodd;fill:#ccd8e0" d="m15.555 1.527c0.347 0.399 0.656 0.918 0.922 1.559 0.214 0.641 0.347 1.426 0.398 2.359 0.027 1.067 0.043 1.883 0.043 2.442l0.637 0.679c0.32 0.082 0.656 0.106 1 0.082 0.988-0.054 1.761 0 2.32 0.161 0.641 0.183 1.176 0.57 1.602 1.156 0.824 0.027 2.066 0.148 3.718 0.363l4.559 0.598c-0.184-1.52-0.57-2.707-1.156-3.559-0.696-0.961-1.536-1.242-2.524-0.84-0.183 0.692-0.316 1.211-0.398 1.559-0.16 0.586-0.227 1.105-0.199 1.562-1.36 0.239-2.227 0.239-2.602 0-0.211-0.136-0.383-0.441-0.52-0.921-0.132-0.481-0.293-0.786-0.48-0.918-0.32-0.243-0.879-0.387-1.68-0.442-0.8-0.027-1.386-0.176-1.757-0.441-0.508-0.371-0.801-0.879-0.883-1.52-0.028-0.105-0.039-0.734-0.039-1.879-0.028-0.8-0.2-1.933-0.52-3.402-0.773-0.371-1.586 0.094-2.441 1.402z" inkscape:connector-curvature="0"/>
      <path id="path34" style="fill-rule:evenodd;fill:#ccd8e0" d="m5.195 11.527c-0.398 0.426-0.957 0.438-1.679 0.039-0.078-0.05-0.465-0.625-1.161-1.718-0.503-0.801-1.105-1.016-1.796-0.641-0.618 0.32-0.723 1.105-0.321 2.359 0.664 0.106 1.332 0.36 2 0.762 0.985 0.559 1.758 0.945 2.321 1.16 0.879 0.344 1.73 0.532 2.558 0.559-0.426-0.027-0.066-0.188 1.078-0.481l1.641-0.441c0.535 0 1.094 0.109 1.68 0.32 0.32 0.11 0.828 0.321 1.519 0.641l1.203-1.16v-0.399c0.024-0.402-0.203-0.945-0.679-1.64-0.297 1.359-1.161 1.773-2.602 1.238-0.828-0.293-1.281-0.906-1.359-1.84-0.082-1.199-0.293-2-0.641-2.398-0.613 0.293-1.121 0.613-1.519 0.957-0.376 0.297-0.813 0.75-1.321 1.363-0.375 0.664-0.679 1.105-0.922 1.32z" inkscape:connector-curvature="0"/>
    </g>
  </g>
<metadata><rdf:RDF><cc:Work><dc:format>image/svg+xml</dc:format><dc:type rdf:resource="http://purl.org/dc/dcmitype/StillImage"/><cc:license rdf:resource="http://creativecommons.org/licenses/publicdomain/"/><dc:publisher><cc:Agent rdf:about="http://openclipart.org/"><dc:title>Openclipart</dc:title></cc:Agent></dc:publisher></cc:Work><cc:License rdf:about="http://creativecommons.org/licenses/publicdomain/"><cc:permits rdf:resource="http://creativecommons.org/ns#Reproduction"/><cc:permits rdf:resource="http://creativecommons.org/ns#Distribution"/><cc:permits rdf:resource="http://creativecommons.org/ns#DerivativeWorks"/></cc:License></rdf:RDF></metadata></svg>
